<svg version="1.1" id="Capa_1" xmlns="http://www.w3.org/2000/svg" xmlns:xlink="http://www.w3.org/1999/xlink" x="0" y="0" viewBox="0 0 486.08 486.08" xml:space="preserve" enable-background="new 0 0 486.075 486.075">
  <path d="M400.65 275.63c-14.92-14.04-28.27-17.58-44.08-17.58 0 0-6.38 0.17-1.3 6.59 6.72 8.5 55.88 72.61 55.11 125.07 -0.89 60.74-61.03 57.29-61.03 57.29 25.3-48.09 12.55-93.59 8.62-109.52 -7.45-29.42-22.12-57.9-44.17-85.35 -27.2-34.23-54.63-50.47-82.28-48.73 -11.83-20.41-22.33-36.8-31.52-50.2C250.05 108.49 217.45 86.88 189.05 0c-6.6 18.43-11.85 32.07-15.8 40.82 -20.06-2.5-64.57-2.49-84.62 0C84.68 32.07 79.43 18.43 72.83 0 44.36 87.11 11.65 108.1 62.31 153.05c5.39 102.19 26.47 129.36 60.56 178.73 28.06 40.63 21.07 55.09 34.23 111.27 -99.67 62.79 69.3 38.72 95.5 37.42 67.47-3.28 208.15 37.06 196.98-106.55C446.34 332.34 427.48 301.11 400.65 275.63zM94.3 95.12c-30.88-2.31-26.51-19.57-11.2-19.08 8.71 0.28 19.52 6.37 26.99 19.08H94.3zM167.39 95.12h-15.8c7.47-12.71 18.29-18.8 26.99-19.08C193.9 75.56 198.27 92.81 167.39 95.12z" fill="#030104"/>
</svg>
