<svg version="1" xmlns="http://www.w3.org/2000/svg" width="256" height="256" viewBox="0 0 256 256" preserveAspectRatio="xMidYMid meet">
  <metadata>
    
Created by potrace 1.15, written by Peter Selinger 2001-2017

  </metadata>
  <g transform="translate(0.000000,256.000000) scale(0.100000,-0.100000)" fill="#000000" stroke="none">
    <path d="M1025 2540c-449-90-819-416-965-850-59-175-78-444-45-634 61-347 266-659 560-851 217-142 432-205 699-205 280 0 492 63 724 217 45 30 82 57 82 59 0 3-59 73-132 155-129 147-131 149-152 132-12-10-79-72-149-137-74-69-131-115-136-110-76 81-481 539-480 543 0 3 29 31 65 61 35 30 64 57 64 60 0 4-214 248-324 369l-21 23 68 62 69 63-174 192c-95 106-173 196-173 200 0 4 121 117 269 251l269 243 25-29c14-16 54-60 89-97l64-68 132 117c73 65 140 124 150 133 16 14 25 8 107-74l89-88 60 52c34 29 61 56 61 61 0 10-159 83-240 110-183 62-464 79-655 40z"/>
    <path d="M1957 2210c-42-40-77-75-77-79 0-10 130-151 140-151 5 0 43 30 84 67l75 67-20 25c-10 14-43 52-72 84l-53 59-77-72z"/>
    <path d="M1495 2141c-60-55-111-105-113-111-2-5 42-62 98-125 89-100 105-114 119-103 9 7 62 55 118 107l103 94-30 36c-16 20-64 73-107 119l-78 83-110-100z"/>
    <path d="M972 2024c-84-75-152-140-152-143 0-9 269-311 276-311 3 0 70 57 147 127 78 70 148 132 155 138 11 10-13 42-124 166-76 85-140 155-144 157-3 1-74-59-158-134z"/>
    <path d="M2148 1753c-40-37-74-69-75-72-1-3 30-41 70-84l72-79 80 74 79 75-69 76c-38 42-73 77-76 77-4 0-40-30-81-67z"/>
    <path d="M1703 1679c-62-56-113-106-113-111 0-5 46-61 102-123l101-114 56 49c31 27 85 75 119 107l64 58-107 118c-58 64-107 117-108 117-1 0-53-46-114-101z"/>
    <path d="M1191 1505c-83-75-151-141-151-147 0-10 256-301 270-306 9-3 310 265 310 276 0 7-204 239-254 290l-23 24-152-137z"/>
    <path d="M2342 1302c-40-37-72-71-72-77 0-5 31-44 69-85l68-74 76 69c43 37 77 73 77 78 0 11-130 157-139 157-3-1-39-31-79-68z"/>
    <path d="M1896 1195c-64-59-116-108-116-110 0-9 202-230 209-230 11 0 231 196 231 205 0 6-125 151-200 234-5 4-60-40-124-99z"/>
    <path d="M1417 989c-72-67-141-130-151-140-19-17-16-21 100-149 65-73 129-144 140-158l21-26 154 139c85 77 154 143 154 147 0 12-266 308-277 308-4 0-68-55-141-121z"/>
    <path d="M2091 729c-61-55-111-103-111-106 0-11 204-233 212-231 14 5 228 201 228 209 0 11-200 229-210 229-4 0-58-45-119-101z"/>
  </g>
</svg>
